<svg xmlns="http://www.w3.org/2000/svg" viewBox="0 0 31.5 20.69"><defs><style>.cls-1,.cls-2{fill:#231f20;}.cls-1{stroke:#231f20;stroke-linecap:round;stroke-linejoin:round;stroke-width:1.2px;}</style></defs><title>have fun</title><g id="Layer_2" data-name="Layer 2"><g id="Layer_2-2" data-name="Layer 2"><polygon class="cls-1" points="13.5 7.19 0.6 20.09 18.55 20.09 13.5 7.19"/><path class="cls-2" d="M18.69,9.39c.55-4.17,5.05-2.39,7.72-3.7a7,7,0,0,0,3.21-4.26c.22-.61-.75-.87-1-.27C28,2.92,27,4.63,25.09,5.11c-1.49.36-3,0-4.52.5a4.34,4.34,0,0,0-2.88,3.78c-.08.64.92.63,1,0Z"/><path class="cls-2" d="M22.1,14.74c.14-1.22,2.41-1,3.21-1.39,1-.51,1.13-1.55,1.81-2.35.41-.49-.29-1.2-.71-.71a13.75,13.75,0,0,0-.94,1.6c-.53.83-1.48.74-2.32.92a2.29,2.29,0,0,0-2,1.93c-.07.64.93.63,1,0Z"/><path class="cls-2" d="M24.43,18a.5.5,0,0,0,0-1,.5.5,0,0,0,0,1Z"/><path class="cls-2" d="M22.55,10.41a.5.5,0,0,0,0-1,.5.5,0,0,0,0,1Z"/><path class="cls-2" d="M31,14.75a.5.5,0,0,0,0-1,.5.5,0,0,0,0,1Z"/><path class="cls-2" d="M31,7.12a.5.5,0,0,0,0-1,.5.5,0,0,0,0,1Z"/><path class="cls-2" d="M17.84,3.73a.5.5,0,0,0,0-1,.5.5,0,0,0,0,1Z"/><path class="cls-2" d="M24.81,1a.5.5,0,0,0,0-1,.5.5,0,0,0,0,1Z"/></g></g></svg>