<?xml version="1.0" encoding="utf-8"?>
<!-- Generator: Adobe Illustrator 21.0.0, SVG Export Plug-In . SVG Version: 6.00 Build 0)  -->
<svg version="1.1" id="Layer_1" xmlns="http://www.w3.org/2000/svg" xmlns:xlink="http://www.w3.org/1999/xlink" x="0px" y="0px"
	 viewBox="0 0 11.8 12.4" style="enable-background:new 0 0 11.8 12.4;" xml:space="preserve">
<style type="text/css">
	.st0{fill:#221F1F;}
	.st1{fill:none;stroke:#FFFFFF;stroke-width:0.5;stroke-linecap:round;stroke-miterlimit:10;}
	.st2{fill:none;stroke:#221F1F;stroke-width:0.5;stroke-linecap:round;stroke-miterlimit:10;}
	.st3{fill:none;stroke:#221F1F;stroke-width:0.25;stroke-linecap:round;stroke-miterlimit:10;}
</style>
<title>create-active</title>
<g id="Layer_2">
	<g id="Layer_1-2">
		<path class="st0" d="M4,5.9h0.9c0.3,0,0.6,0.3,0.6,0.6v1.4c0,0.3-0.3,0.6-0.6,0.6H4c-0.3,0-0.6-0.3-0.6-0.6V6.5
			C3.4,6.2,3.6,5.9,4,5.9z"/>
		<circle class="st0" cx="4.4" cy="5.4" r="0.9"/>
		<rect x="3.4" y="7.8" class="st0" width="0.6" height="1.6"/>
		<rect x="4.8" y="7.8" class="st0" width="0.6" height="1.6"/>
		<rect x="5.4" y="5.9" transform="matrix(0.6397 -0.7686 0.7686 0.6397 -3.1313 6.7552)" class="st0" width="0.5" height="1.6"/>
		<rect x="2.4" y="6.5" transform="matrix(0.7686 -0.6397 0.6397 0.7686 -3.5643 3.5827)" class="st0" width="1.6" height="0.5"/>
		<path class="st0" d="M7.8,6.8h0.6c0.2,0,0.4,0.2,0.4,0.4v1c0,0.2-0.2,0.4-0.4,0.4H7.8c-0.2,0-0.4-0.2-0.4-0.4v-1
			C7.4,7,7.6,6.8,7.8,6.8z"/>
		<circle class="st0" cx="8.1" cy="6.5" r="0.6"/>
		<rect x="7.4" y="8.1" class="st0" width="0.4" height="1.1"/>
		<rect x="8.3" y="8.1" class="st0" width="0.4" height="1.1"/>
		<rect x="8.7" y="6.8" transform="matrix(0.6397 -0.7686 0.7686 0.6397 -2.4391 9.4867)" class="st0" width="0.3" height="1.1"/>
		<rect x="6.7" y="7.2" transform="matrix(0.7686 -0.6397 0.6397 0.7686 -3.0189 6.3327)" class="st0" width="1.1" height="0.3"/>
		<path class="st0" d="M6.6,4L6.6,4C6.8,4,7,4.2,7,4.4v0.3C7,4.8,6.8,5,6.6,5h0C6.4,5,6.2,4.8,6.2,4.6V4.4C6.2,4.2,6.4,4,6.6,4z"/>
		<circle class="st0" cx="6.6" cy="3.8" r="0.3"/>
		<rect x="6.2" y="4.7" class="st0" width="0.2" height="0.6"/>
		<rect x="6.8" y="4.7" class="st0" width="0.2" height="0.6"/>
		<rect x="7" y="4" transform="matrix(0.6397 -0.7686 0.7686 0.6397 -0.7664 6.9898)" class="st0" width="0.2" height="0.6"/>
		<rect x="5.8" y="4.2" transform="matrix(0.7686 -0.6397 0.6397 0.7686 -1.3507 4.9047)" class="st0" width="0.6" height="0.2"/>
		<path class="st1" d="M9.7,2.3"/>
		<path class="st2" d="M5.9,0.8c-3.1,0-5.7,2.5-5.7,5.7c0,3.1,2.5,5.7,5.7,5.7s5.7-2.5,5.7-5.7c0-1.6-0.7-3.1-1.8-4.2"/>
		<line class="st3" x1="6.7" y1="1.4" x2="9.1" y2="1.4"/>
		<line class="st3" x1="7.9" y1="2.6" x2="7.9" y2="0.1"/>
	</g>
</g>
</svg>
