<svg xmlns="http://www.w3.org/2000/svg" viewBox="0 0 11.8 12.37"><defs><style>.cls-1{fill:#fff;}.cls-2,.cls-3{fill:none;stroke:#fff;stroke-linecap:round;stroke-miterlimit:10;}.cls-2{stroke-width:0.5px;}.cls-3{stroke-width:0.25px;}</style></defs><title>Asset 1</title><g id="Layer_2" data-name="Layer 2"><g id="Layer_1-2" data-name="Layer 1"><rect class="cls-1" x="3.39" y="5.91" width="2.02" height="2.57" rx="0.56" ry="0.56"/><circle class="cls-1" cx="4.4" cy="5.42" r="0.86"/><rect class="cls-1" x="3.39" y="7.81" width="0.61" height="1.62"/><rect class="cls-1" x="4.8" y="7.81" width="0.61" height="1.62"/><rect class="cls-1" x="5.39" y="5.93" width="0.49" height="1.58" transform="translate(-3.13 6.75) rotate(-50.23)"/><rect class="cls-1" x="2.92" y="5.93" width="0.49" height="1.58" transform="translate(0.03 13.45) rotate(-129.77)"/><rect class="cls-1" x="7.39" y="6.8" width="1.35" height="1.72" rx="0.37" ry="0.37"/><circle class="cls-1" cx="8.06" cy="6.48" r="0.57"/><rect class="cls-1" x="7.39" y="8.08" width="0.41" height="1.08"/><rect class="cls-1" x="8.33" y="8.08" width="0.41" height="1.08"/><rect class="cls-1" x="8.73" y="6.82" width="0.33" height="1.06" transform="translate(-2.44 9.48) rotate(-50.23)"/><rect class="cls-1" x="7.08" y="6.82" width="0.33" height="1.06" transform="translate(6.23 17.61) rotate(-129.77)"/><rect class="cls-1" x="6.2" y="4" width="0.78" height="1" rx="0.37" ry="0.37"/><circle class="cls-1" cx="6.59" cy="3.82" r="0.33"/><rect class="cls-1" x="6.2" y="4.74" width="0.24" height="0.63"/><rect class="cls-1" x="6.75" y="4.74" width="0.24" height="0.63"/><rect class="cls-1" x="6.98" y="4.01" width="0.19" height="0.61" transform="translate(-0.77 6.99) rotate(-50.23)"/><rect class="cls-1" x="6.02" y="4.01" width="0.19" height="0.61" transform="translate(6.7 11.78) rotate(-129.77)"/><path class="cls-2" d="M9.74,2.33"/><path class="cls-2" d="M5.9.82A5.67,5.67,0,1,0,9.74,2.33"/><line class="cls-3" x1="6.68" y1="1.35" x2="9.14" y2="1.35"/><line class="cls-3" x1="7.95" y1="2.58" x2="7.95" y2="0.13"/></g></g></svg>