<?xml version="1.0" encoding="utf-8"?>
<!-- Generator: Adobe Illustrator 21.0.0, SVG Export Plug-In . SVG Version: 6.00 Build 0)  -->
<svg version="1.1" id="Layer_1" xmlns="http://www.w3.org/2000/svg" xmlns:xlink="http://www.w3.org/1999/xlink" x="0px" y="0px"
	 viewBox="0 0 11.3 12.8" style="enable-background:new 0 0 11.3 12.8;" xml:space="preserve">
<style type="text/css">
	.st0{fill:#221F1F;}
	.st1{fill:none;stroke:#221F1F;stroke-width:0.5;stroke-linecap:round;stroke-miterlimit:10;}
	.st2{fill:none;stroke:#221F1F;stroke-width:0.25;stroke-linecap:round;stroke-linejoin:round;}
</style>
<title>join-active</title>
<g id="Layer_2">
	<g id="Layer_1-2">
		<path class="st0" d="M3.7,6.9h0.9c0.3,0,0.6,0.3,0.6,0.6v1.4c0,0.3-0.3,0.6-0.6,0.6H3.7c-0.3,0-0.6-0.3-0.6-0.6V7.4
			C3.1,7.1,3.4,6.9,3.7,6.9z"/>
		<circle class="st0" cx="4.1" cy="6.4" r="0.9"/>
		<rect x="3.1" y="8.8" class="st0" width="0.6" height="1.6"/>
		<rect x="4.5" y="8.8" class="st0" width="0.6" height="1.6"/>
		<rect x="5.1" y="6.9" transform="matrix(0.6397 -0.7686 0.7686 0.6397 -3.9695 6.8905)" class="st0" width="0.5" height="1.6"/>
		<rect x="2.1" y="7.4" transform="matrix(0.7686 -0.6397 0.6397 0.7686 -4.2516 3.6292)" class="st0" width="1.6" height="0.5"/>
		<path class="st0" d="M7.5,7.8h0.6c0.2,0,0.4,0.2,0.4,0.4v1c0,0.2-0.2,0.4-0.4,0.4H7.5c-0.2,0-0.4-0.2-0.4-0.4v-1
			C7.1,7.9,7.3,7.8,7.5,7.8z"/>
		<circle class="st0" cx="7.8" cy="7.4" r="0.6"/>
		<rect x="7.1" y="9" class="st0" width="0.4" height="1.1"/>
		<rect x="8.1" y="9" class="st0" width="0.4" height="1.1"/>
		<rect x="8.5" y="7.8" transform="matrix(0.6397 -0.7686 0.7686 0.6397 -3.2772 9.6219)" class="st0" width="0.3" height="1.1"/>
		<rect x="6.4" y="8.1" transform="matrix(0.7686 -0.6397 0.6397 0.7686 -3.6998 6.3769)" class="st0" width="1.1" height="0.3"/>
		<path class="st0" d="M6.3,5L6.3,5c0.2,0,0.4,0.2,0.4,0.4v0.3C6.7,5.8,6.5,6,6.3,6h0C6.1,6,5.9,5.8,5.9,5.6V5.3
			C5.9,5.1,6.1,5,6.3,5z"/>
		<circle class="st0" cx="6.3" cy="4.8" r="0.3"/>
		<rect x="5.9" y="5.7" class="st0" width="0.2" height="0.6"/>
		<rect x="6.5" y="5.7" class="st0" width="0.2" height="0.6"/>
		<rect x="6.7" y="5" transform="matrix(0.6397 -0.7686 0.7686 0.6397 -1.6067 7.1332)" class="st0" width="0.2" height="0.6"/>
		<rect x="5.5" y="5.2" transform="matrix(0.7686 -0.6397 0.6397 0.7686 -2.0235 4.9587)" class="st0" width="0.6" height="0.2"/>
		<polyline class="st1" points="4.2,1.8 0.2,1.8 0.2,12.6 11,12.6 11,1.8 7.5,1.8 		"/>
		<line class="st2" x1="5.8" y1="0.1" x2="5.8" y2="3.1"/>
		<line class="st2" x1="6.6" y1="2.3" x2="5.8" y2="3.1"/>
		<line class="st2" x1="5.1" y1="2.3" x2="5.8" y2="3.1"/>
	</g>
</g>
</svg>
