<svg xmlns="http://www.w3.org/2000/svg" viewBox="0 0 11.26 12.81"><defs><style>.cls-1{fill:#fff;}.cls-2,.cls-3{fill:none;stroke:#fff;stroke-linecap:round;}.cls-2{stroke-miterlimit:10;stroke-width:0.5px;}.cls-3{stroke-linejoin:round;stroke-width:0.25px;}</style></defs><title>Asset 2</title><g id="Layer_2" data-name="Layer 2"><g id="Layer_1-2" data-name="Layer 1"><rect class="cls-1" x="3.12" y="6.87" width="2.02" height="2.57" rx="0.56" ry="0.56"/><circle class="cls-1" cx="4.13" cy="6.39" r="0.86"/><rect class="cls-1" x="3.12" y="8.78" width="0.61" height="1.62"/><rect class="cls-1" x="4.53" y="8.78" width="0.61" height="1.62"/><rect class="cls-1" x="5.12" y="6.89" width="0.49" height="1.58" transform="translate(-3.97 6.89) rotate(-50.23)"/><rect class="cls-1" x="2.65" y="6.89" width="0.49" height="1.58" transform="translate(-1.16 14.83) rotate(-129.77)"/><rect class="cls-1" x="7.12" y="7.77" width="1.35" height="1.72" rx="0.37" ry="0.37"/><circle class="cls-1" cx="7.79" cy="7.44" r="0.57"/><rect class="cls-1" x="7.12" y="9.04" width="0.41" height="1.08"/><rect class="cls-1" x="8.06" y="9.04" width="0.41" height="1.08"/><rect class="cls-1" x="8.46" y="7.78" width="0.33" height="1.06" transform="translate(-3.28 9.62) rotate(-50.23)"/><rect class="cls-1" x="6.81" y="7.78" width="0.33" height="1.06" transform="translate(5.04 18.98) rotate(-129.77)"/><rect class="cls-1" x="5.93" y="4.97" width="0.78" height="1" rx="0.37" ry="0.37"/><circle class="cls-1" cx="6.32" cy="4.78" r="0.33"/><rect class="cls-1" x="5.93" y="5.71" width="0.24" height="0.63"/><rect class="cls-1" x="6.48" y="5.71" width="0.24" height="0.63"/><rect class="cls-1" x="6.71" y="4.98" width="0.19" height="0.61" transform="translate(-1.61 7.13) rotate(-50.23)"/><rect class="cls-1" x="5.75" y="4.98" width="0.19" height="0.61" transform="translate(5.52 13.15) rotate(-129.77)"/><polyline class="cls-2" points="4.2 1.8 0.25 1.8 0.25 12.56 11.01 12.56 11.01 1.8 7.49 1.8"/><line class="cls-3" x1="5.84" y1="0.13" x2="5.84" y2="3.06"/><line class="cls-3" x1="6.6" y1="2.3" x2="5.84" y2="3.06"/><line class="cls-3" x1="5.08" y1="2.3" x2="5.84" y2="3.06"/></g></g></svg>